<?xml version="1.0" encoding="utf-8"?>
<!-- Generator: Adobe Illustrator 24.0.0, SVG Export Plug-In . SVG Version: 6.00 Build 0)  -->
<svg version="1.1" id="Layer_1" xmlns="http://www.w3.org/2000/svg" xmlns:xlink="http://www.w3.org/1999/xlink" x="0px" y="0px"
	 viewBox="0 0 512 512" style="enable-background:new 0 0 512 512;" xml:space="preserve">
<g>
	<path d="M307.8,51.9H204.7c-83.6,0-151.5,67.2-151.5,149.9v102c0,82.7,67.9,149.9,151.5,149.9h103.1c83.6,0,151.5-67.2,151.5-149.9
		v-102C459.3,119.1,391.4,51.9,307.8,51.9z M359.7,259.4c-11,24-33.4,33-69.8,36.8c11.8,7.4,15.2,16.7,15.2,41.8s-0.3,28.5-0.3,34.3
		c0.1,9.5,14,14,13.5,17.1c-0.5,3-113.1,2.1-113.1,0.2c0-4.8,13.6-7.6,13.6-17.7c0-8.7-0.2-31.1-0.2-31.1c-5.5,0.8-11,1.2-16.6,1.2
		c-24.6,0-32.3-15.7-36-24.4c-4.8-11.4-11-16.8-17.7-21.1c-4.1-2.6-5-5.7-0.3-6.6c21.7-4.1,27.3,24.6,41.8,29.2
		c10.4,3.3,23.7,1.8,30.3-2.4c0.9-8.8,7.2-16.4,12.5-20.4c-36.9-3.5-58.8-16.4-70.2-37c-0.1,0-5.3-11.2-4.9-11.2
		c-3.6-10.5-5.1-22.4-5.1-35.8c0-23.8,7.4-32.7,17.4-45.4c-7.6-27.1,2.7-45.6,2.7-45.6s16-3.3,46.2,18.3c16.4-7,60.1-7.6,80.7-1.6
		c12.7-8.4,35.9-20.3,45.2-16.9c2.5,4.1,8,16,3.3,42.1c3.2,5.7,19.7,17.9,19.7,52.4c-0.2,12.7-1.6,23.5-4,32.5
		C364.1,248.2,360.5,259.5,359.7,259.4z"/>
</g>
</svg>
