<?xml version="1.0" encoding="utf-8"?>
<!-- Generator: Adobe Illustrator 24.0.0, SVG Export Plug-In . SVG Version: 6.00 Build 0)  -->
<svg version="1.1" id="Layer_1" xmlns="http://www.w3.org/2000/svg" xmlns:xlink="http://www.w3.org/1999/xlink" x="0px" y="0px"
	 viewBox="0 0 512 512" style="enable-background:new 0 0 512 512;" xml:space="preserve">
<path d="M313.6,56.6H210.5C126.9,56.6,59,123.8,59,206.5v102c0,82.7,67.9,149.9,151.5,149.9h103.1c83.6,0,151.5-67.2,151.5-149.9
	v-102C465.1,123.8,397.2,56.6,313.6,56.6L313.6,56.6z M192.9,385.7h-60.5v-171h60.5V385.7z M162.7,189.1
	c-16.4,0-30.2-13.7-30.2-29.9s13.8-29.9,30.2-29.9s30.2,13.7,30.2,29.9S179.1,189.1,162.7,189.1L162.7,189.1z M390.8,291.7v94h-51.8
	v-82.9c0-19.7-1.7-45.3-29.4-45.3s-32,21.4-32,43.6v84.6h-50.1v-171H275v23.1h0.9c6.9-13.7,25.1-23.1,51-23.1
	c54.4,0,64.8,30.8,64.8,76.9L390.8,291.7z"/>
</svg>
