<?xml version="1.0" encoding="utf-8"?>
<!-- Generator: Adobe Illustrator 24.0.0, SVG Export Plug-In . SVG Version: 6.00 Build 0)  -->
<svg version="1.1" id="Layer_1" xmlns="http://www.w3.org/2000/svg" xmlns:xlink="http://www.w3.org/1999/xlink" x="0px" y="0px"
	 viewBox="0 0 1681.9 1824.1" style="enable-background:new 0 0 1681.9 1824.1;" xml:space="preserve">
<style type="text/css">
	.st0{display:none;}
	.st1{display:inline;fill:#61DAFB;}
	.st2{fill:none;}
	.st3{fill:#764ABC;}
	.st4{fill:#FFFFFF;}
</style>
<g class="st0">
	<path class="st1" d="M1666.3,734.7c0-109.3-136.9-212.9-346.7-277.1c48.4-213.9,26.9-384-67.9-438.5
		c-21.9-12.8-47.4-18.8-75.3-18.8v75c15.5,0,27.9,3,38.3,8.7c45.7,26.2,65.6,126.1,50.1,254.6c-3.7,31.6-9.7,64.9-17.1,98.9
		c-65.9-16.1-137.9-28.6-213.5-36.7c-45.4-62.2-92.5-118.7-139.9-168.1C1003.8,130.8,1106.7,75,1176.7,75V0
		c-92.5,0-213.5,65.9-335.9,180.2C718.4,66.6,597.3,1.3,504.8,1.3v75c69.6,0,172.8,55.5,282.5,156.7
		c-47.1,49.4-94.2,105.6-138.9,167.8c-76,8.1-148,20.5-213.9,37c-7.7-33.6-13.5-66.2-17.5-97.5c-15.8-128.5,3.7-228.3,49.1-254.9
		c10.1-6.1,23.2-8.7,38.7-8.7v-75c-28.2,0-53.8,6.1-76,18.8C334.3,75,313.2,244.8,361.9,458C152.8,522.6,16.6,625.8,16.6,734.7
		c0,109.3,136.9,212.9,346.7,277.1c-48.4,213.9-26.9,384,67.9,438.5c21.9,12.8,47.4,18.8,75.7,18.8c92.5,0,213.5-65.9,335.9-180.2
		c122.4,113.7,243.5,178.9,335.9,178.9c28.2,0,53.8-6.1,76-18.8c94.5-54.5,115.7-224.3,66.9-437.5
		C1530.1,947.3,1666.3,843.7,1666.3,734.7L1666.3,734.7z M1228.5,510.5c-12.4,43.4-27.9,88.1-45.4,132.8
		c-13.8-26.9-28.2-53.8-44-80.7c-15.5-26.9-31.9-53.1-48.4-78.7C1138.4,490.9,1184.4,499.7,1228.5,510.5L1228.5,510.5z
		 M1074.5,868.6c-26.2,45.4-53.1,88.4-81,128.5c-50.1,4.4-100.9,6.7-152,6.7c-50.8,0-101.6-2.4-151.3-6.4
		c-27.9-40-55.2-82.7-81.4-127.8c-25.6-44-48.8-88.8-69.9-133.8c20.9-45.1,44.4-90.1,69.6-134.2c26.2-45.4,53.1-88.4,81-128.5
		c50.1-4.4,100.9-6.7,152-6.7c50.8,0,101.6,2.4,151.3,6.4c27.9,40,55.2,82.7,81.4,127.8c25.6,44,48.8,88.8,69.9,133.8
		C1122.9,779.5,1099.7,824.5,1074.5,868.6z M1183.1,824.9c17.7,43.8,33.1,88.5,46.4,133.8c-44.1,10.8-90.5,19.8-138.5,26.9
		c16.5-25.9,32.9-52.5,48.4-79.7C1154.8,879,1169.3,851.8,1183.1,824.9L1183.1,824.9z M842.1,1183.7
		c-31.3-32.3-62.5-68.3-93.5-107.6c30.3,1.3,61.2,2.4,92.5,2.4c31.6,0,62.9-0.7,93.5-2.4C905.7,1113.6,874.8,1149.5,842.1,1183.7z
		 M591.9,985.6c-47.7-7.1-93.8-15.8-137.9-26.6c12.4-43.4,27.9-88.1,45.4-132.8c13.8,26.9,28.2,53.8,44,80.7
		C559.3,933.8,575.4,960,591.9,985.6z M840.4,285.8c31.3,32.3,62.5,68.3,93.5,107.6c-30.3-1.3-61.2-2.4-92.5-2.4
		c-31.6,0-62.9,0.7-93.5,2.4C776.8,355.9,807.7,320,840.4,285.8z M591.6,483.9c-16.5,25.9-32.9,52.5-48.4,79.7
		c-15.5,26.9-29.9,53.8-43.7,80.7c-17.7-43.8-33.1-88.5-46.4-133.8C497.1,500,543.5,490.9,591.6,483.9z M287.3,904.9
		c-119-50.8-196-117.4-196-170.2s77-119.7,196-170.1c28.9-12.4,60.5-23.5,93.1-34c19.2,65.9,44.4,134.5,75.7,204.8
		c-30.9,69.9-55.8,138.2-74.7,203.8C348.1,928.8,316.5,917.3,287.3,904.9L287.3,904.9z M468.2,1385.4
		c-45.7-26.2-65.6-126.1-50.1-254.6c3.7-31.6,9.7-64.9,17.1-98.9c65.9,16.1,137.9,28.6,213.5,36.7c45.4,62.2,92.5,118.7,139.9,168.1
		c-109.6,101.9-212.5,157.7-282.5,157.7C491,1394.2,478.3,1391.1,468.2,1385.4z M1265.8,1129.2c15.8,128.5-3.7,228.3-49.1,254.9
		c-10.1,6.1-23.2,8.7-38.7,8.7c-69.6,0-172.8-55.5-282.5-156.7c47.1-49.4,94.2-105.6,138.9-167.8c76-8.1,148-20.5,213.9-37
		C1256,1065.3,1262.1,1097.9,1265.8,1129.2L1265.8,1129.2z M1395.3,904.9c-28.9,12.4-60.5,23.5-93.1,34
		c-19.2-65.9-44.4-134.5-75.7-204.8c30.9-69.9,55.8-138.2,74.7-203.8c33.3,10.4,64.9,21.9,94.5,34.3c119,50.8,196,117.4,196,170.1
		C1591.3,787.5,1514.3,854.5,1395.3,904.9L1395.3,904.9z"/>
	<path class="st1" d="M841.1,888.4c84.9,0,153.7-68.8,153.7-153.7S926,581,841.1,581s-153.7,68.8-153.7,153.7
		C687.4,819.6,756.2,888.4,841.1,888.4z"/>
</g>
<polygon class="st2" points="-118.8,985.6 -122.1,985.6 -122.1,985.6 "/>
<g class="st0">
	<path class="st1" d="M27.2,1816.3H0v-218.4h81.9c42.1,0,69.6,25.7,69.6,65.1c0,30.4-16.5,54-43.9,62.7l50.6,90.7h-31.9L79.5,1730
		H27.2V1816.3z M27.2,1705.8h52.2c28,0,43.9-15.1,43.9-41.9c0-26.2-17-41.8-45.1-41.8h-51C27.2,1622.1,27.2,1705.8,27.2,1705.8z"/>
	<path class="st1" d="M318.5,1771.2c-4.5,27.5-31.2,47.8-65.5,47.8c-45.1,0-72.5-31.3-72.5-80.8c0-48.9,27.9-82,71.3-82
		c42.5,0,68.7,30.9,68.7,78.6v10h-113v1.5c0,30.1,17.7,50,46,50c20,0,34.7-10.1,39.1-25L318.5,1771.2L318.5,1771.2z M207.7,1724.1
		h85.5c-0.6-26.3-17.1-45.1-41.9-45.1C226.6,1679,209.3,1697.9,207.7,1724.1z"/>
	<path class="st1" d="M347.1,1771.8c0-26.9,20.7-43.9,57.1-46l45.1-2.6V1710c0-19.2-12.7-30.7-34.5-30.7c-20.3,0-33,9.5-36.3,25H353
		c1.8-27.2,25.1-48.1,62.4-48.1c36.9,0,60.2,20,60.2,51.3v108.8h-25v-27.1H450c-9.4,18-29.4,29.8-50.6,29.8
		C368.1,1819,347.1,1800.1,347.1,1771.8z M449.3,1756.5v-12.9l-42.1,2.6c-21.2,1.4-33.3,10.7-33.3,25.6c0,15,12.6,24.8,31.5,24.8
		C430.2,1796.6,449.3,1779.2,449.3,1756.5z"/>
	<path class="st1" d="M620.6,1710.5c-3.8-17.1-17.1-31.2-40.3-31.2c-27.2,0-45.7,22.6-45.7,58.3c0,36.6,18.8,58.3,46,58.3
		c21.5,0,35.6-11.4,40.1-30.3h25.9c-4.1,31.3-30.4,53.4-66.1,53.4c-43.6,0-72.7-30.7-72.7-81.4c0-49.6,28.9-81.4,72.4-81.4
		c39.4,0,62.8,26,66.1,54.3L620.6,1710.5L620.6,1710.5z"/>
	<path class="st1" d="M712.2,1620.9v38h30.6v21.6h-30.6v93.5c0,14.4,6.1,20.9,19.5,20.9c3,0,9.1-0.5,10.9-0.8v22.1
		c-3.2,0.8-10.4,1.2-16.7,1.2c-28.9,0-40.1-11.8-40.1-42.1v-94.9h-23.5v-21.6h23.5v-38h26.4V1620.9z"/>
	<path class="st1" d="M851.4,1816.3v-218.4h26.5l119.6,171.5h1.4v-171.5h26.9v218.4h-26.5l-119.6-170.9h-1.4v170.9H851.4z"/>
	<path class="st1" d="M1059.7,1771.8c0-26.9,20.7-43.9,57.1-46l45.1-2.6V1710c0-19.2-12.7-30.7-34.5-30.7c-20.3,0-33,9.5-36.3,25
		h-25.4c1.8-27.2,25.1-48.1,62.4-48.1c36.9,0,60.2,20,60.2,51.3v108.8h-25v-27.1h-0.6c-9.4,18-29.4,29.8-50.6,29.8
		C1080.8,1819,1059.7,1800.1,1059.7,1771.8z M1161.9,1756.5v-12.9l-42.1,2.6c-21.2,1.4-33.3,10.7-33.3,25.6
		c0,15,12.6,24.8,31.5,24.8C1142.8,1796.6,1161.9,1779.2,1161.9,1756.5z"/>
	<path class="st1" d="M1263,1620.9v38h30.6v21.6H1263v93.5c0,14.4,6.1,20.9,19.5,20.9c3,0,9.1-0.5,10.9-0.8v22.1
		c-3.2,0.8-10.4,1.2-16.7,1.2c-28.9,0-40.1-11.8-40.1-42.1v-94.9h-23.5v-21.6h23.5v-38h26.4V1620.9z"/>
	<path class="st1" d="M1326.3,1616c0-9.1,7.4-16.3,16.3-16.3c9.1,0,16.5,7.3,16.5,16.3c0,8.9-7.4,16.3-16.5,16.3
		C1333.7,1632.4,1326.3,1625,1326.3,1616z M1329.5,1658.9h26.3v157.4h-26.3V1658.9z"/>
	<path class="st1" d="M1469.2,1816.3h-26.9l-58-157.4h27.7l43.4,129.4h0.6l43.6-129.4h27.4L1469.2,1816.3z"/>
	<path class="st1" d="M1679.9,1771.2c-4.5,27.5-31.2,47.8-65.5,47.8c-45.1,0-72.5-31.3-72.5-80.8c0-48.9,27.9-82,71.3-82
		c42.5,0,68.7,30.9,68.7,78.6v10H1569v1.5c0,30.1,17.7,50,46,50c20,0,34.7-10.1,39.1-25L1679.9,1771.2L1679.9,1771.2z
		 M1569.1,1724.1h85.5c-0.6-26.3-17.1-45.1-41.9-45.1C1588,1679,1570.8,1697.9,1569.1,1724.1z"/>
</g>
<g class="st0">
	<path class="st1" d="M286.2,1816.3H259v-218.4h81.9c42.1,0,69.6,25.7,69.6,65.1c0,30.4-16.5,54-43.9,62.7l50.6,90.7h-31.9
		l-46.8-86.4h-52.2v86.3H286.2z M286.2,1705.8h52.2c28,0,43.9-15.1,43.9-41.9c0-26.2-17-41.8-45.1-41.8h-51V1705.8z"/>
	<path class="st1" d="M577.5,1771.2c-4.5,27.5-31.2,47.8-65.5,47.8c-45.1,0-72.5-31.3-72.5-80.8c0-48.9,27.9-82,71.3-82
		c42.5,0,68.7,30.9,68.7,78.6v10h-113v1.5c0,30.1,17.7,50,46,50c20,0,34.7-10.1,39.1-25L577.5,1771.2L577.5,1771.2z M466.7,1724.1
		h85.5c-0.6-26.3-17.1-45.1-41.9-45.1C485.6,1679,468.3,1697.9,466.7,1724.1z"/>
	<path class="st1" d="M606.1,1771.8c0-26.9,20.7-43.9,57.1-46l45.1-2.6V1710c0-19.2-12.7-30.7-34.5-30.7c-20.3,0-33,9.5-36.3,25H612
		c1.8-27.2,25.1-48.1,62.4-48.1c36.9,0,60.2,20,60.2,51.3v108.8h-25v-27.1H709c-9.4,18-29.4,29.8-50.6,29.8
		C627.1,1819,606.1,1800.1,606.1,1771.8z M708.3,1756.5v-12.9l-42.1,2.6c-21.2,1.4-33.3,10.7-33.3,25.6c0,15,12.6,24.8,31.5,24.8
		C689.2,1796.6,708.3,1779.2,708.3,1756.5z"/>
	<path class="st1" d="M879.6,1710.5c-3.8-17.1-17.1-31.2-40.3-31.2c-27.2,0-45.7,22.6-45.7,58.3c0,36.6,18.8,58.3,46,58.3
		c21.5,0,35.6-11.4,40.1-30.3h25.9c-4.1,31.3-30.4,53.4-66.1,53.4c-43.6,0-72.7-30.7-72.7-81.4c0-49.6,28.9-81.4,72.4-81.4
		c39.4,0,62.8,26,66.1,54.3L879.6,1710.5L879.6,1710.5z"/>
	<path class="st1" d="M971.2,1620.9v38h30.6v21.6h-30.6v93.5c0,14.4,6.1,20.9,19.5,20.9c3,0,9.1-0.5,10.9-0.8v22.1
		c-3.2,0.8-10.4,1.2-16.7,1.2c-28.9,0-40.1-11.8-40.1-42.1v-94.9h-23.5v-21.6h23.5v-38h26.4V1620.9z"/>
	<path class="st1" d="M1122.7,1765c0.6,18.5,14.7,31.3,34.5,31.3c24.1,0,37.1-14.4,37.1-41v-157.4h27.2v157.6
		c0,41.5-23.9,66-64.2,66c-36.3,0-61.8-23.3-61.8-56.5H1122.7z"/>
	<path class="st1" d="M1287.4,1756.2c2.6,23.6,25,39.2,56.2,39.2c29.5,0,51-15.6,51-37.1c0-18.5-12.9-29.8-42.2-37.4l-28-7.3
		c-40.3-10.3-58.1-28-58.1-57.7c0-36.3,31.8-61.8,77.2-61.8c43.4,0,74.9,25.7,76.1,62.4h-27.2c-2.4-23.5-21.3-37.8-49.8-37.8
		c-28.3,0-48,14.7-48,36c0,16.5,12.1,26.3,41.8,34.1l22.9,6.1c45.3,11.4,63.6,28.8,63.6,60.1c0,40-31.5,64.9-81.7,64.9
		c-46.3,0-78.4-25.1-81-63.7L1287.4,1756.2L1287.4,1756.2z"/>
</g>
<path class="st3" d="M1145.2,1043.4c58.1-6,102.1-56.1,100.1-116.2c-2-60.1-52.1-108.2-112.1-108.2h-4
	c-62.1,2-110.1,54.1-108.1,116.2c2,30,14,56.1,32,74.1c-68.1,134.2-172.2,232.3-328.4,314.4c-106.1,56.1-216.3,76.1-326.4,62.1
	c-90.1-12-160.2-52.1-204.3-118.2c-64.1-98.1-70.1-204.2-16-310.3c38-76.1,98.1-132.2,136.2-160.2c-8-26-20-70.1-26-102.1
	C-2.3,905.2,27.7,1189.6,115.8,1323.8C181.9,1424,316.1,1486,464.3,1486c40.1,0,80.1-4,120.2-14
	C840.8,1422,1035.1,1269.7,1145.2,1043.4z M1497.7,795.1c-152.2-178.2-376.5-276.4-632.9-276.4h-32c-18-36-56.1-60.1-98.1-60.1h-4
	c-62,2-110.1,54.1-108.1,116.2c2,60.1,52.1,108.2,112.2,108.2h4c44.1-2,82.1-30,98.1-68.1h36c152.2,0,296.4,44.1,426.6,130.1
	c100.1,66.1,172.2,152.2,212.3,256.3c34,84.1,32,166.2-4.1,236.3c-56.1,106.1-150.2,164.2-274.4,164.2c-80.1,0-156.2-24-196.2-42.1
	c-22,20-62.1,52.1-90.1,72.1c86.1,40.1,174.2,62.1,258.3,62.1c192.2,0,334.4-106.1,388.5-212.3
	C1651.9,1165.5,1647.9,965.3,1497.7,795.1L1497.7,795.1z M480.3,1077.5c2,60.1,52.1,108.1,112.1,108.1h4
	c62.1-2,110.1-54.1,108.1-116.2c-2-60.1-52.1-108.1-112.1-108.1h-4c-4,0-10,0-14,2c-82.1-136.2-116.2-284.4-104.1-444.6
	c8-120.2,48.1-224.3,118.2-310.4c58-74.1,170.2-110.1,246.3-112.1c212.3-4.1,302.4,260.3,308.4,366.5c26,6,70.1,20,100.1,30
	C1219.3,168.2,1019,0,826.8,0C646.5,0,480.3,130.1,414.2,322.4c-92.1,256.4-32.1,502.7,80.1,696.9
	C484.3,1033.4,478.3,1055.4,480.3,1077.5z"/>
<path class="st4" d="M501,1816.3h-27.3v-218.4h81.9c42.1,0,69.6,25.7,69.6,65.1c0,30.4-16.5,54-43.9,62.7l50.5,90.7H600l-46.7-86.4
	H501V1816.3z M501,1705.8h52.3c28,0,43.9-15.1,43.9-41.9c0-26.2-17-41.8-45.1-41.8h-51L501,1705.8z"/>
<path class="st4" d="M792.3,1771.2c-4.5,27.6-31.2,47.8-65.5,47.8c-45.1,0-72.5-31.3-72.5-80.8c0-48.9,27.9-82,71.3-82
	c42.5,0,68.7,30.9,68.7,78.6v10h-113v1.5c0,30.1,17.7,50,46,50c20,0,34.7-10.2,39.1-25L792.3,1771.2z M681.5,1724.1H767
	c-0.6-26.3-17.1-45.1-41.9-45.1C700.4,1679,683.1,1697.9,681.5,1724.1L681.5,1724.1z"/>
<path class="st4" d="M819.5,1737.6c0-49.3,27.1-81.4,66.8-81.4c22.5,0,40.7,11,50.1,28.3h0.6v-86.6h26.3v218.4h-25.1v-26.6h-0.5
	c-10.2,18.2-28.2,29.4-50.9,29.4C846.8,1819,819.5,1786.9,819.5,1737.6z M846.5,1737.6c0,35.7,17.6,58.3,45.4,58.3
	c27.1,0,45.3-23,45.3-58.3s-18.2-58.3-45.3-58.3C864,1679.3,846.5,1702,846.5,1737.6z"/>
<path class="st4" d="M1134.7,1816.3h-25v-25.6h-0.6c-9.4,18.2-25.7,28.3-50,28.3c-34.4,0-54.5-22.3-54.5-58v-102.1h26.3v97.5
	c0,25.6,12,39.3,36.3,39.3c25.6,0,41-17.6,41-44.3v-92.5h26.3L1134.7,1816.3z"/>
<path class="st4" d="M1230.3,1756.4l-38,59.9h-29.2l53.6-78.7l-52.7-78.7h29.4l37.8,59h0.6l37.4-59h29.4l-53.1,77.7l52.4,79.8h-29.2
	l-37.7-59.9L1230.3,1756.4z"/>
</svg>
